<svg xmlns="http://www.w3.org/2000/svg" xmlns:xlink="http://www.w3.org/1999/xlink" width="150" zoomAndPan="magnify" viewBox="0 0 112.5 30.000001" height="40" preserveAspectRatio="xMidYMid meet" version="1.2"><defs><clipPath id="63a944aa82"><path d="M 3.605469 5 L 23 5 L 23 23.789062 L 3.605469 23.789062 Z M 3.605469 5 "/></clipPath><filter x="0%" y="0%" width="100%" filterUnits="objectBoundingBox" id="41d3762775" height="100%"><feColorMatrix values="0 0 0 0 1 0 0 0 0 1 0 0 0 0 1 0 0 0 1 0" type="matrix" in="SourceGraphic"/></filter><clipPath id="3779d5a816"><path d="M 0.605469 0.34375 L 19 0.34375 L 19 18.789062 L 0.605469 18.789062 Z M 0.605469 0.34375 "/></clipPath><clipPath id="ab5cf1e2db"><rect x="0" width="20" y="0" height="19"/></clipPath><clipPath id="d5fc648202"><path d="M 8 5 L 27.554688 5 L 27.554688 23.789062 L 8 23.789062 Z M 8 5 "/></clipPath><clipPath id="d6aa1cb9a8"><path d="M 0.539062 0.34375 L 19 0.34375 L 19 18.789062 L 0.539062 18.789062 Z M 0.539062 0.34375 "/></clipPath><clipPath id="f2b668e1b3"><rect x="0" width="20" y="0" height="19"/></clipPath></defs><g id="0f00520eda"><g clip-rule="nonzero" clip-path="url(#63a944aa82)"><g mask="url(#24ab90baed)" transform="matrix(1,0,0,1,3,5)"><g clip-path="url(#ab5cf1e2db)"><g clip-rule="nonzero" clip-path="url(#3779d5a816)"><path style=" stroke:none;fill-rule:nonzero;fill:#cdedfd;fill-opacity:1;" d="M 18.851562 12.222656 C 18.851562 13.976562 18.167969 15.628906 16.925781 16.867188 C 15.644531 18.148438 13.964844 18.789062 12.28125 18.789062 C 10.597656 18.789062 8.917969 18.148438 7.636719 16.867188 L 2.535156 11.769531 C 1.296875 10.527344 0.613281 8.878906 0.613281 7.125 C 0.613281 5.367188 1.296875 3.71875 2.535156 2.476562 C 5.097656 -0.0820312 9.265625 -0.0820312 11.828125 2.476562 L 16.925781 7.578125 C 18.167969 8.816406 18.851562 10.46875 18.851562 12.222656 Z M 18.851562 12.222656 "/></g></g><mask id="24ab90baed"><g filter="url(#41d3762775)"><rect x="0" width="112.5" y="0" height="30.000001" style="fill:#000000;fill-opacity:0.7;stroke:none;"/></g></mask></g></g><g clip-rule="nonzero" clip-path="url(#d5fc648202)"><g mask="url(#1a789b7df2)" transform="matrix(1,0,0,1,8,5)"><g clip-path="url(#f2b668e1b3)"><g clip-rule="nonzero" clip-path="url(#d6aa1cb9a8)"><path style=" stroke:none;fill-rule:nonzero;fill:#9cd0ff;fill-opacity:1;" d="M 18.984375 7.125 C 18.984375 8.878906 18.300781 10.527344 17.0625 11.769531 L 11.960938 16.867188 C 10.679688 18.148438 9 18.789062 7.316406 18.789062 C 5.632812 18.789062 3.953125 18.148438 2.671875 16.867188 C 1.429688 15.628906 0.746094 13.976562 0.746094 12.222656 C 0.746094 10.46875 1.429688 8.816406 2.671875 7.578125 L 7.769531 2.476562 C 10.332031 -0.0820312 14.5 -0.0820312 17.0625 2.476562 C 18.300781 3.71875 18.984375 5.367188 18.984375 7.125 Z M 18.984375 7.125 "/></g></g><mask id="1a789b7df2"><g filter="url(#41d3762775)"><rect x="0" width="112.5" y="0" height="30.000001" style="fill:#000000;fill-opacity:0.7;stroke:none;"/></g></mask></g></g><g style="fill:#9cd0ff;fill-opacity:1;"><g transform="translate(32.456231, 20.850081)"><path style="stroke:none" d="M 0.09375 -9.34375 L 2.640625 -9.34375 L 4.234375 -3.09375 L 4.328125 -3.09375 L 5.90625 -9.34375 L 8.46875 -9.34375 L 10.0625 -3.09375 L 10.140625 -3.09375 L 11.734375 -9.34375 L 14.109375 -9.34375 L 11.546875 0 L 8.8125 0 L 7.234375 -5.90625 L 7.140625 -5.90625 L 5.5625 0 L 2.640625 0 Z M 0.09375 -9.34375 "/></g></g><g style="fill:#9cd0ff;fill-opacity:1;"><g transform="translate(46.2985, 20.850081)"><path style="stroke:none" d="M 5.203125 0.171875 C 4.492188 0.171875 3.859375 0.0664062 3.296875 -0.140625 C 2.734375 -0.359375 2.25 -0.675781 1.84375 -1.09375 C 1.445312 -1.507812 1.144531 -2.015625 0.9375 -2.609375 C 0.726562 -3.210938 0.625 -3.898438 0.625 -4.671875 C 0.625 -5.453125 0.726562 -6.140625 0.9375 -6.734375 C 1.144531 -7.335938 1.445312 -7.84375 1.84375 -8.25 C 2.25 -8.664062 2.734375 -8.984375 3.296875 -9.203125 C 3.859375 -9.421875 4.492188 -9.53125 5.203125 -9.53125 C 5.890625 -9.53125 6.507812 -9.414062 7.0625 -9.1875 C 7.613281 -8.957031 8.082031 -8.628906 8.46875 -8.203125 C 8.863281 -7.785156 9.164062 -7.289062 9.375 -6.71875 C 9.59375 -6.15625 9.703125 -5.53125 9.703125 -4.84375 C 9.703125 -4.71875 9.695312 -4.59375 9.6875 -4.46875 C 9.675781 -4.351562 9.664062 -4.25 9.65625 -4.15625 C 9.632812 -4.050781 9.617188 -3.957031 9.609375 -3.875 L 3.171875 -3.875 C 3.265625 -3.351562 3.46875 -2.914062 3.78125 -2.5625 C 4.101562 -2.207031 4.578125 -2.03125 5.203125 -2.03125 C 5.679688 -2.03125 6.035156 -2.109375 6.265625 -2.265625 C 6.492188 -2.421875 6.695312 -2.632812 6.875 -2.90625 L 9.53125 -2.90625 C 9.414062 -2.507812 9.25 -2.125 9.03125 -1.75 C 8.820312 -1.382812 8.539062 -1.054688 8.1875 -0.765625 C 7.84375 -0.472656 7.421875 -0.242188 6.921875 -0.078125 C 6.429688 0.0859375 5.859375 0.171875 5.203125 0.171875 Z M 7.140625 -5.734375 C 7.097656 -5.929688 7.023438 -6.125 6.921875 -6.3125 C 6.828125 -6.5 6.695312 -6.671875 6.53125 -6.828125 C 6.375 -6.984375 6.179688 -7.101562 5.953125 -7.1875 C 5.734375 -7.28125 5.484375 -7.328125 5.203125 -7.328125 C 4.628906 -7.328125 4.179688 -7.171875 3.859375 -6.859375 C 3.535156 -6.554688 3.304688 -6.179688 3.171875 -5.734375 Z M 7.140625 -5.734375 "/></g></g><g style="fill:#9cd0ff;fill-opacity:1;"><g transform="translate(56.261389, 20.850081)"><path style="stroke:none" d="M 1.140625 -12.34375 L 3.609375 -12.34375 L 3.609375 0 L 1.140625 0 Z M 1.140625 -12.34375 "/></g></g><g style="fill:#9cd0ff;fill-opacity:1;"><g transform="translate(60.669713, 20.850081)"><path style="stroke:none" d="M 1.140625 -12.34375 L 3.609375 -12.34375 L 3.609375 0 L 1.140625 0 Z M 1.140625 -12.34375 "/></g></g><g style="fill:#9cd0ff;fill-opacity:1;"><g transform="translate(65.078036, 20.850081)"><path style="stroke:none" d="M 4.765625 0 C 3.785156 0 3.054688 -0.234375 2.578125 -0.703125 C 2.097656 -1.171875 1.859375 -1.847656 1.859375 -2.734375 L 1.859375 -7.0625 L 0.359375 -7.0625 L 0.359375 -9.34375 L 1.859375 -9.34375 L 2.203125 -11.8125 L 4.328125 -11.8125 L 4.328125 -9.34375 L 6.53125 -9.34375 L 6.53125 -7.0625 L 4.328125 -7.0625 L 4.328125 -3.171875 C 4.328125 -2.898438 4.40625 -2.6875 4.5625 -2.53125 C 4.71875 -2.375 4.929688 -2.296875 5.203125 -2.296875 L 6.53125 -2.296875 L 6.53125 0 Z M 4.765625 0 "/></g></g><g style="fill:#9cd0ff;fill-opacity:1;"><g transform="translate(71.955055, 20.850081)"><path style="stroke:none" d="M 1.0625 -9.34375 L 3.171875 -9.34375 L 3.4375 -8.296875 L 3.53125 -8.296875 C 3.800781 -8.691406 4.125 -8.960938 4.5 -9.109375 C 4.875 -9.265625 5.285156 -9.34375 5.734375 -9.34375 L 6.875 -9.34375 L 6.875 -6.96875 L 5.90625 -6.96875 C 5.15625 -6.96875 4.570312 -6.757812 4.15625 -6.34375 C 3.738281 -5.9375 3.53125 -5.378906 3.53125 -4.671875 L 3.53125 0 L 1.0625 0 Z M 1.0625 -9.34375 "/></g></g><g style="fill:#9cd0ff;fill-opacity:1;"><g transform="translate(78.743909, 20.850081)"><path style="stroke:none" d="M 3.796875 0.171875 C 3.285156 0.171875 2.828125 0.0976562 2.421875 -0.046875 C 2.015625 -0.191406 1.671875 -0.394531 1.390625 -0.65625 C 1.109375 -0.914062 0.894531 -1.21875 0.75 -1.5625 C 0.601562 -1.914062 0.53125 -2.304688 0.53125 -2.734375 C 0.53125 -3.160156 0.601562 -3.546875 0.75 -3.890625 C 0.90625 -4.242188 1.132812 -4.550781 1.4375 -4.8125 C 1.75 -5.070312 2.128906 -5.273438 2.578125 -5.421875 C 3.023438 -5.566406 3.546875 -5.640625 4.140625 -5.640625 L 6.34375 -5.640625 L 6.34375 -6.09375 C 6.34375 -6.53125 6.203125 -6.859375 5.921875 -7.078125 C 5.640625 -7.296875 5.253906 -7.40625 4.765625 -7.40625 C 4.410156 -7.40625 4.109375 -7.328125 3.859375 -7.171875 C 3.617188 -7.023438 3.453125 -6.835938 3.359375 -6.609375 L 0.875 -6.609375 C 0.957031 -6.992188 1.101562 -7.359375 1.3125 -7.703125 C 1.519531 -8.046875 1.785156 -8.351562 2.109375 -8.625 C 2.429688 -8.894531 2.816406 -9.113281 3.265625 -9.28125 C 3.722656 -9.445312 4.25 -9.53125 4.84375 -9.53125 C 6.09375 -9.53125 7.066406 -9.226562 7.765625 -8.625 C 8.460938 -8.03125 8.8125 -7.15625 8.8125 -6 L 8.8125 0 L 6.703125 0 L 6.4375 -1.0625 L 6.34375 -1.0625 C 6.25 -0.925781 6.128906 -0.785156 5.984375 -0.640625 C 5.847656 -0.492188 5.675781 -0.359375 5.46875 -0.234375 C 5.257812 -0.109375 5.015625 -0.0078125 4.734375 0.0625 C 4.460938 0.132812 4.148438 0.171875 3.796875 0.171875 Z M 4.40625 -1.859375 C 4.988281 -1.859375 5.457031 -2.019531 5.8125 -2.34375 C 6.164062 -2.664062 6.34375 -3.085938 6.34375 -3.609375 L 6.34375 -3.875 L 4.234375 -3.875 C 3.785156 -3.875 3.46875 -3.78125 3.28125 -3.59375 C 3.09375 -3.40625 3 -3.175781 3 -2.90625 C 3 -2.601562 3.109375 -2.351562 3.328125 -2.15625 C 3.554688 -1.957031 3.914062 -1.859375 4.40625 -1.859375 Z M 4.40625 -1.859375 "/></g></g><g style="fill:#9cd0ff;fill-opacity:1;"><g transform="translate(88.177791, 20.850081)"><path style="stroke:none" d="M 5.203125 0.171875 C 4.492188 0.171875 3.859375 0.0664062 3.296875 -0.140625 C 2.734375 -0.359375 2.25 -0.675781 1.84375 -1.09375 C 1.445312 -1.507812 1.144531 -2.015625 0.9375 -2.609375 C 0.726562 -3.210938 0.625 -3.898438 0.625 -4.671875 C 0.625 -5.453125 0.726562 -6.140625 0.9375 -6.734375 C 1.144531 -7.335938 1.445312 -7.84375 1.84375 -8.25 C 2.25 -8.664062 2.734375 -8.984375 3.296875 -9.203125 C 3.859375 -9.421875 4.492188 -9.53125 5.203125 -9.53125 C 5.859375 -9.53125 6.429688 -9.4375 6.921875 -9.25 C 7.421875 -9.070312 7.84375 -8.828125 8.1875 -8.515625 C 8.539062 -8.203125 8.820312 -7.84375 9.03125 -7.4375 C 9.25 -7.03125 9.414062 -6.609375 9.53125 -6.171875 L 7.0625 -6.171875 C 6.882812 -6.523438 6.648438 -6.804688 6.359375 -7.015625 C 6.078125 -7.222656 5.691406 -7.328125 5.203125 -7.328125 C 4.578125 -7.328125 4.066406 -7.101562 3.671875 -6.65625 C 3.285156 -6.21875 3.09375 -5.554688 3.09375 -4.671875 C 3.09375 -3.796875 3.285156 -3.132812 3.671875 -2.6875 C 4.066406 -2.25 4.578125 -2.03125 5.203125 -2.03125 C 5.691406 -2.03125 6.078125 -2.128906 6.359375 -2.328125 C 6.648438 -2.535156 6.882812 -2.816406 7.0625 -3.171875 L 9.53125 -3.171875 C 9.414062 -2.722656 9.25 -2.300781 9.03125 -1.90625 C 8.820312 -1.507812 8.539062 -1.15625 8.1875 -0.84375 C 7.84375 -0.53125 7.421875 -0.28125 6.921875 -0.09375 C 6.429688 0.0820312 5.859375 0.171875 5.203125 0.171875 Z M 5.203125 0.171875 "/></g></g><g style="fill:#9cd0ff;fill-opacity:1;"><g transform="translate(97.876178, 20.850081)"><path style="stroke:none" d="M 1.140625 -12.34375 L 3.609375 -12.34375 L 3.609375 -5.203125 L 7.0625 -9.34375 L 9.96875 -9.34375 L 6.171875 -4.765625 L 10.234375 0 L 7.328125 0 L 3.609375 -4.328125 L 3.609375 0 L 1.140625 0 Z M 1.140625 -12.34375 "/></g></g></g></svg>